<svg width="32" height="32" viewBox="0 0 32 32" fill="none" xmlns="http://www.w3.org/2000/svg">
<g clip-path="url(#clip0_162_404)">
<rect x="9.88916" y="3.79175" width="13.5323" height="2.70645" fill="#FFD900"/>
<line x1="9.15104" y1="16.2168" x2="9.15104" y2="3.36114" stroke="black" stroke-width="1.47625"/>
<line x1="19.4849" y1="3.1152" x2="9.64321" y2="3.1152" stroke="black" stroke-width="1.47625"/>
<line x1="18.7467" y1="9.26624" x2="18.7467" y2="3.69955" stroke="black" stroke-width="1.47625"/>
<line x1="19.8537" y1="2.37708" x2="19.8537" y2="0.562521" stroke="black" stroke-width="1.72229"/>
<line x1="11.8576" y1="12.0034" x2="11.8576" y2="9.26621" stroke="black" stroke-width="1.47625"/>
<line x1="11.8576" y1="14.7406" x2="11.8576" y2="12.0034" stroke="black" stroke-width="1.47625"/>
<line x1="12.5957" y1="12.4648" x2="21.9461" y2="12.4648" stroke="black" stroke-width="1.47625"/>
<line x1="13.8257" y1="11.2345" x2="17.7625" y2="11.2345" stroke="black" stroke-width="1.47625"/>
<line x1="15.302" y1="10.0043" x2="17.7624" y2="10.0043" stroke="black" stroke-width="1.47625"/>
<line x1="17.0244" y1="12.4648" x2="20.715" y2="12.4648" stroke="#FFD900" stroke-width="1.47625"/>
<line x1="17.0244" y1="12.4648" x2="20.715" y2="12.4648" stroke="#FFD900" stroke-width="1.47625"/>
<line x1="19.9767" y1="13.3262" x2="19.9767" y2="9.26627" stroke="black" stroke-width="1.47625"/>
<path d="M18.5005 13.2034V9.26623" stroke="#FFD900" stroke-width="1.47625"/>
<line x1="7.67472" y1="18.8618" x2="7.67472" y2="14.6484" stroke="black" stroke-width="1.47625"/>
<line x1="5.49121" y1="18.1237" x2="6.96746" y2="18.1237" stroke="black" stroke-width="1.47625"/>
<line x1="3.73819" y1="23.0446" x2="3.73819" y2="20.3381" stroke="black" stroke-width="1.47625"/>
<line x1="6.44449" y1="25.751" x2="6.44449" y2="23.0445" stroke="black" stroke-width="1.47625"/>
<line x1="4.96842" y1="24.5208" x2="4.96842" y2="21.8143" stroke="black" stroke-width="1.47625"/>
<line x1="3" y1="19.6" x2="5.70645" y2="19.6" stroke="black" stroke-width="1.47625"/>
<line x1="5.70654" y1="25.0129" x2="8.413" y2="25.0129" stroke="black" stroke-width="1.47625"/>
<line x1="10.8733" y1="30.6718" x2="14.0718" y2="30.6718" stroke="black" stroke-width="1.47625"/>
<line x1="17.824" y1="30.6718" x2="21.0225" y2="30.6718" stroke="black" stroke-width="1.47625"/>
<line x1="16.7783" y1="18.1237" x2="27.6041" y2="18.1237" stroke="black" stroke-width="1.47625"/>
<line x1="16.7783" y1="13.941" x2="27.6041" y2="13.941" stroke="black" stroke-width="1.47625"/>
<line x1="20.469" y1="27.7194" x2="23.6675" y2="27.7194" stroke="black" stroke-width="1.47625"/>
<line x1="12.5957" y1="27.7194" x2="18.0086" y2="27.7194" stroke="black" stroke-width="1.47625"/>
<line x1="4.47632" y1="23.7826" x2="7.18277" y2="23.7826" stroke="black" stroke-width="1.47625"/>
<line x1="3" y1="22.3064" x2="5.70645" y2="22.3064" stroke="black" stroke-width="1.47625"/>
<line x1="10.5966" y1="16.1862" x2="10.5966" y2="9.26625" stroke="#FFD900" stroke-width="1.47625"/>
<line x1="9.15104" y1="25.751" x2="9.15104" y2="16.1861" stroke="#FFD900" stroke-width="1.47625"/>
<line x1="9.88916" y1="26.2431" x2="23.4214" y2="26.2431" stroke="#171717" stroke-width="1.47625"/>
<line x1="9.88916" y1="26.2431" x2="23.4214" y2="26.2431" stroke="#FFD900" stroke-width="1.47625"/>
<line x1="9.64307" y1="27.7194" x2="12.5956" y2="27.7194" stroke="#FFD900" stroke-width="1.47625"/>
<line x1="17.3933" y1="27.7194" x2="20.3458" y2="27.7194" stroke="#FFD900" stroke-width="1.47625"/>
<line x1="11.3655" y1="25.0129" x2="24.8978" y2="25.0129" stroke="#FFD900" stroke-width="1.47625"/>
<line x1="7.05957" y1="23.5365" x2="24.6515" y2="23.5365" stroke="#FFD900" stroke-width="1.47625"/>
<line x1="5.70654" y1="22.3064" x2="24.6517" y2="22.3064" stroke="#FFD900" stroke-width="1.47625"/>
<line x1="4.35327" y1="21.0762" x2="24.6517" y2="21.0762" stroke="#FFD900" stroke-width="1.47625"/>
<line x1="5.70654" y1="19.6" x2="23.4215" y2="19.6" stroke="#FFD900" stroke-width="1.47625"/>
<line x1="8.41284" y1="18.4621" x2="16.7785" y2="18.4621" stroke="#FFD900" stroke-width="1.47625"/>
<line x1="8.41284" y1="17.0473" x2="16.7785" y2="17.0473" stroke="#FFD900" stroke-width="1.47625"/>
<line x1="8.41284" y1="16.8935" x2="16.7785" y2="16.8935" stroke="#FFD900" stroke-width="1.47625"/>
<line x1="9.88916" y1="15.448" x2="18.2548" y2="15.448" stroke="#FFD900" stroke-width="1.47625"/>
<line x1="12.5957" y1="13.9717" x2="16.7784" y2="13.9717" stroke="#FFD900" stroke-width="1.53776"/>
<line x1="12.5957" y1="13.9717" x2="16.7784" y2="13.9717" stroke="#FFD900" stroke-width="1.53776"/>
<line x1="20.7148" y1="0.408727" x2="24.9283" y2="0.408727" stroke="black" stroke-width="1.47625"/>
<line x1="22.9294" y1="3.79175" x2="22.9294" y2="1.1468" stroke="black" stroke-width="1.47625"/>
<line x1="24.1596" y1="14.6791" x2="24.1596" y2="3.60722" stroke="black" stroke-width="1.47625"/>
<line x1="5.70654" y1="8.52811" x2="27.6042" y2="8.52811" stroke="black" stroke-width="1.47625"/>
<line x1="22.1912" y1="3.1152" x2="19.4847" y2="3.1152" stroke="#FFD900" stroke-width="1.47625"/>
<line x1="21.453" y1="3.85327" x2="21.453" y2="1.14682" stroke="#FFD900" stroke-width="1.47625"/>
<rect x="9.88916" y="5.0835" width="13.5323" height="2.70645" fill="#FFD900"/>
<line x1="9.15104" y1="28.4575" x2="9.15104" y2="25.7511" stroke="black" stroke-width="1.47625"/>
<line x1="10.3813" y1="29.9363" x2="10.3813" y2="26.9812" stroke="black" stroke-width="1.47625"/>
<line x1="14.81" y1="29.9363" x2="14.81" y2="26.9812" stroke="black" stroke-width="1.47625"/>
<line x1="17.2704" y1="29.9363" x2="17.2704" y2="26.9812" stroke="black" stroke-width="1.47625"/>
<line x1="21.453" y1="29.9363" x2="21.453" y2="26.9812" stroke="black" stroke-width="1.47625"/>
<line x1="24.1596" y1="27.2299" x2="24.1596" y2="24.2748" stroke="black" stroke-width="1.47625"/>
<line x1="28.3422" y1="17.6316" x2="28.3422" y2="14.4331" stroke="black" stroke-width="1.47625"/>
<line x1="16.0402" y1="17.6316" x2="16.0402" y2="14.4331" stroke="black" stroke-width="1.47625"/>
<line x1="25.6359" y1="11.9727" x2="25.6359" y2="9.2662" stroke="black" stroke-width="1.47625"/>
<line x1="22.6833" y1="13.2029" x2="22.6833" y2="10.4964" stroke="black" stroke-width="1.47625"/>
<line x1="21.453" y1="14.6791" x2="21.453" y2="11.9726" stroke="black" stroke-width="1.47625"/>
<line x1="10.6274" y1="17.7854" x2="10.6274" y2="16.1861" stroke="black" stroke-width="1.47625"/>
<line x1="12.5957" y1="9.88136" x2="15.3023" y2="9.88136" stroke="white" stroke-width="1.23021"/>
<line x1="13.2106" y1="11.7266" x2="13.2106" y2="9.26615" stroke="white" stroke-width="1.23021"/>
<line x1="20.7148" y1="9.88136" x2="23.4215" y2="9.88136" stroke="white" stroke-width="1.23021"/>
<line x1="21.33" y1="11.7266" x2="21.33" y2="9.26615" stroke="white" stroke-width="1.23021"/>
<line x1="10.6274" y1="25.5049" x2="10.6274" y2="23.9056" stroke="black" stroke-width="1.47625"/>
<line x1="11.8576" y1="24.2747" x2="11.8576" y2="21.0761" stroke="black" stroke-width="1.47625"/>
<line x1="24.1596" y1="20.3407" x2="24.1596" y2="17.3856" stroke="black" stroke-width="1.47625"/>
<line x1="25.3898" y1="24.5208" x2="25.3898" y2="20.092" stroke="black" stroke-width="1.47625"/>
<line x1="20.2228" y1="29.9363" x2="20.2228" y2="26.9812" stroke="black" stroke-width="1.47625"/>
<line x1="10.8733" y1="29.1956" x2="14.0718" y2="29.1956" stroke="#F74402" stroke-width="1.47625"/>
<line x1="17.824" y1="29.1956" x2="21.0225" y2="29.1956" stroke="#F74402" stroke-width="1.47625"/>
<line x1="16.7783" y1="16.0324" x2="27.6041" y2="16.0324" stroke="#F74402" stroke-width="2.70645"/>
</g>
<defs>
<clipPath id="clip0_162_404">
<rect width="26.0625" height="30.8889" fill="white" transform="translate(3 0.5625)"/>
</clipPath>
</defs>
</svg>
